<svg width="461" height="352" fill="none" xmlns="http://www.w3.org/2000/svg"><ellipse cx="226.5" cy="4" rx="8.5" ry="4" fill="#049240"/><ellipse cx="227" cy="61" rx="65" ry="57" fill="#25CE74"/><path d="M62 149.623c0-23.748 19.252-43 43-43h30v86h-30c-23.748 0-43-19.252-43-43z" fill="#698EFF"/><path d="M78 144.123c0-15.188 12.312-27.5 27.5-27.5h.5v55h-.5c-15.188 0-27.5-12.312-27.5-27.5z" fill="#90ADFF"/><path d="M413 155.123l-150 55.5c-42 3.167-127.4 9.8-133 11-8 0-22.5 5.833-32 10.5l-117 68 12.5 73.5 138-73.5c4.5-1 5.5 1 3 4l-44.5 22-18 56 202.5 2.5 34.5-91.5 91.5-61c7.5 2 30-1 41-5.5 39-19.5 10.5-47.5-11-50 5.5-23.5-11.667-24-17.5-21.5z" fill="#698EFF"/><path d="M382 149.623c0-23.748-19.252-43-43-43h-30v86h30c23.748 0 43-19.252 43-43z" fill="#698EFF"/><path d="M164 211.123c14 38.5 125.5 52.5 130.5 3.5l-130.5-3.5z" fill="#4550BF"/><path d="M369 143.123c0-15.188-12.312-27.5-27.5-27.5h-.5v55h.5c15.188 0 27.5-12.312 27.5-27.5z" fill="#90ADFF"/><rect x="93" y="54.623" width="267" height="173" rx="86.5" fill="#698EFF"/><circle cx="182.5" cy="118.123" r="11.5" fill="#22237E"/><circle cx="336.5" cy="118.123" r="11.5" fill="#22237E"/><path d="M297.5 91.623h-68.552c-5.917 0-12.287 1.135-17.098 4.58-5.499 3.936-6.85 10.405-6.85 17.167v33.253c0 18 16.5 21.877 23.5 25 11 2.377 28.5 3.877 53 0 24.89-3.939 31.833-23.333 32-35 .08-5.623 2-19.623 0-30.5-2.223-12.09-10.667-14.333-16-14.5z" fill="#9DB7FF"/><path d="M219 186.623c-10.8-10.8-33.167-14.833-43-15.5-1-.5-3.2.4-4 8 0 24 22 25.333 33 23 5.833-2.667 16.8-9.5 14-15.5z" fill="#DC4DA8"/><path d="M210 198.623c-10-11-21-17.5-31-19.5-1-.5-7-1.265-7 0 0 24 22 25.334 33 23 5.833-2.666 5.951-2.454 5-3.5z" fill="#CE9BE4"/><rect x="232" y="136.623" width="27" height="15" rx="7.5" fill="#698EFF"/><rect x="272" y="136.623" width="27" height="15" rx="7.5" fill="#698EFF"/><path d="M214 54.5c39.365 37.474 171.446 23.52 76.141.5-52.211 0-64.4-.5-76.141-.5z" fill="#049240"/><path d="M218 54c38 35 165.5 21.5 73.5 0H218zm58 0c-3-26.5-27-41.5-41.5-49.5 16 15.5 28.5 28 33 49.5h8.5z" fill="#62EF8E"/><path d="M249 54c-3-26.5-10.5-41-20.5-50C238 19 236 33 239 54h10zm-43 .7C209 28.2 216.5 13 226.5 4 217 19 219 33.7 216 54.7h-10zm-28 0c3.036-27.303 27.325-42.458 42-50.7-16.193 15.97-28.683 28.548-33.238 50.7H178z" fill="#62EF8E"/></svg>