<svg width="201" height="141" fill="none" xmlns="http://www.w3.org/2000/svg"><ellipse cx="107.199" cy="5.4" rx="3.4" ry="1.6" fill="#049240"/><ellipse cx="107.398" cy="28.2" rx="26" ry="22.8" fill="#25CE74"/><path d="M41.4 63.649c0-9.5 7.701-17.2 17.2-17.2h12v34.4h-12c-9.499 0-17.2-7.701-17.2-17.2z" fill="#698EFF"/><path d="M47.799 61.449c0-6.075 4.925-11 11-11h.2v22h-.2c-6.075 0-11-4.925-11-11z" fill="#90ADFF"/><path d="M181.798 65.849l-59.999 22.2c-16.8 1.266-50.96 3.92-53.2 4.4-3.2 0-9 2.333-12.8 4.2L8.37 128.253a3.567 3.567 0 00-.667.574l-3.93 4.339c-7.44 8.214-.79 21.27 10.228 20.081l55.2-29.4c1.8-.4 2.2.4 1.2 1.6l-17.8 8.8-7.2 22.4 80.999 1 13.8-36.6 36.599-24.4c3 .8 12-.4 16.4-2.2 15.6-7.8 4.2-19-4.4-20 2.2-9.4-4.666-9.6-7-8.6z" fill="#698EFF"/><path d="M169.398 63.649c0-9.5-7.7-17.2-17.199-17.2h-12v34.4h12c9.499 0 17.199-7.701 17.199-17.2z" fill="#698EFF"/><path d="M82.2 88.248c5.6 15.4 50.199 21 52.199 1.4l-52.2-1.4z" fill="#4550BF"/><path d="M164.199 61.049c0-6.075-4.925-11-11-11h-.2v22h.2c6.075 0 11-4.925 11-11z" fill="#90ADFF"/><rect x="53.799" y="25.649" width="106.799" height="69.199" rx="34.6" fill="#698EFF"/><circle cx="89.6" cy="51.049" fill="#22237E" r="4.6"/><circle cx="151.198" cy="51.049" fill="#22237E" r="4.6"/><path d="M135.599 40.449h-27.42c-2.367 0-4.915.454-6.839 1.832-2.2 1.574-2.74 4.162-2.74 6.867v13.3c0 7.2 6.6 8.751 9.4 10 4.399.951 11.399 1.551 21.199 0 9.956-1.575 12.734-9.333 12.8-14 .032-2.248.8-7.848 0-12.2-.889-4.835-4.266-5.732-6.4-5.799z" fill="#9DB7FF"/><path d="M104.198 78.449c-4.32-4.32-13.266-5.934-17.2-6.2-.4-.2-1.28.16-1.6 3.2 0 9.6 8.8 10.133 13.2 9.2 2.334-1.067 6.72-3.8 5.6-6.2z" fill="#DC4DA8"/><path d="M100.598 83.249c-4-4.4-8.4-7-12.4-7.8-.4-.2-2.8-.506-2.8 0 0 9.6 8.8 10.133 13.2 9.2 2.334-1.067 2.381-.982 2-1.4z" fill="#CE9BE4"/><rect x="109.398" y="58.449" width="10.8" height="6" rx="3" fill="#698EFF"/><rect x="125.398" y="58.449" width="10.8" height="6" rx="3" fill="#698EFF"/><path d="M102.199 25.6c15.746 14.99 68.578 9.408 30.456.2-20.884 0-25.76-.2-30.456-.2z" fill="#049240"/><path d="M103.799 25.4c15.2 14 66.199 8.6 29.4 0h-29.4zm23.199 0c-1.2-10.6-10.8-16.6-16.6-19.8 6.4 6.2 11.4 11.2 13.2 19.8h3.4z" fill="#62EF8E"/><path d="M116.198 25.4c-1.2-10.6-4.2-16.4-8.2-20 3.8 6 3 11.6 4.2 20h4zM99 25.68c1.199-10.6 4.199-16.68 8.199-20.28-3.8 6-3 11.88-4.2 20.28h-4zm-11.2 0C89.014 14.759 98.73 8.697 104.6 5.4c-6.477 6.388-11.474 11.42-13.295 20.28H87.8z" fill="#62EF8E"/></svg>