<svg width="20" height="20" fill="none" xmlns="http://www.w3.org/2000/svg"><path d="M9.883 13.568v3.274-3.274zm-.818 3.274v-3.274 3.274zm-4.094 0h9.006H4.97zM3.743 2.105h11.462c.904 0 1.637.734 1.637 1.638v8.187c0 .904-.733 1.638-1.637 1.638H3.743a1.637 1.637 0 01-1.638-1.638V3.743c0-.904.734-1.638 1.638-1.638z" fill="#EBECEE"/><path d="M9.883 13.568v3.274m-.818 0v-3.274M4.97 16.841h9.006M3.743 2.105h11.462c.904 0 1.637.734 1.637 1.638v8.187c0 .904-.733 1.638-1.637 1.638H3.743a1.637 1.637 0 01-1.638-1.638V3.743c0-.904.734-1.638 1.638-1.638z" stroke="#EBECEE" stroke-width="1.17" stroke-linecap="round"/></svg>