<svg width="24" height="24" fill="none" xmlns="http://www.w3.org/2000/svg"><path fill-rule="evenodd" clip-rule="evenodd" d="M12 3c-2.444 0-2.75.01-3.71.054-.958.044-1.613.196-2.185.419-.6.225-1.145.58-1.595 1.037-.458.45-.812.994-1.037 1.595-.223.572-.375 1.227-.419 2.184C3.01 9.25 3 9.556 3 12s.01 2.75.054 3.71c.044.958.196 1.613.419 2.185.225.6.58 1.145 1.037 1.595.45.458.994.812 1.595 1.038.572.222 1.227.374 2.184.418.96.043 1.267.054 3.711.054s2.75-.01 3.71-.054c.958-.044 1.613-.196 2.185-.419.6-.225 1.145-.58 1.595-1.037.458-.45.812-.994 1.038-1.595.222-.572.374-1.227.418-2.184.043-.96.054-1.267.054-3.711s-.01-2.75-.054-3.71c-.044-.958-.196-1.613-.419-2.185A4.412 4.412 0 0019.49 4.51a4.41 4.41 0 00-1.595-1.037c-.572-.223-1.227-.375-2.184-.419C14.75 3.011 14.444 3 12 3zm0 1.622c2.403 0 2.687.009 3.636.052.878.04 1.355.186 1.672.31.42.163.72.359 1.035.673.315.315.51.615.673 1.035.123.317.27.794.31 1.671.043.95.052 1.233.052 3.637 0 2.403-.009 2.687-.052 3.636-.04.878-.187 1.355-.31 1.672a2.79 2.79 0 01-.673 1.035c-.315.315-.615.51-1.035.673-.317.123-.794.27-1.671.31-.949.043-1.233.052-3.637.052-2.403 0-2.688-.009-3.636-.052-.878-.04-1.355-.187-1.672-.31a2.788 2.788 0 01-1.035-.673 2.788 2.788 0 01-.673-1.035c-.124-.317-.27-.794-.31-1.671-.043-.95-.052-1.233-.052-3.637 0-2.403.009-2.687.052-3.636.04-.878.186-1.355.31-1.672.163-.42.359-.72.673-1.035.315-.315.615-.51 1.035-.673.317-.124.794-.27 1.671-.31.95-.043 1.233-.052 3.637-.052zm5.884 2.574a1.08 1.08 0 11-2.159 0 1.08 1.08 0 012.16 0z" fill="#fff"/><path fill-rule="evenodd" clip-rule="evenodd" d="M12 15a3 3 0 110-6 3 3 0 010 6zm0-7.622a4.622 4.622 0 100 9.244 4.622 4.622 0 000-9.244zm5.885-.182a1.08 1.08 0 11-2.16 0 1.08 1.08 0 012.16 0z" fill="#fff"/></svg>