<svg width="506" height="805" fill="none" xmlns="http://www.w3.org/2000/svg"><path d="M390.082 92.332s.336 37.877-1.895 39.907c-.504.458-6.235 1.456-8.186 2.432 5.945 11.228 31.808 93.159 31.808 93.159l29.652-95.598-13.055-.208-1.883-39.006-36.441-.686z" fill="#F5CFA8"/><path d="M407.607 108.25s19.98 24.392 17.749 26.421c17.105 2.432-43.404-.976-45.355 0 5.945 11.228 31.808 93.159 31.808 93.159l29.652-95.598-13.055-.208-1.883-39.006-18.916 15.232z" fill="#D5AC81"/><path d="M390.768 93.7l34.901.686s-11.117 16.179-17.291 16.179c-7.717 0-17.61-16.864-17.61-16.864z" fill="#373431"/><path d="M377.327 49.325s-1.357 10.308-1.15 12.065c-.044-1.757-.979-2.529-2.522-2.529-2.317 0-5.595 1.457-5.051 7.17.489 5.128 3.113 9.034 8.793 9.036 0 0 15.549 27.781 29.439 27.781 14.663 2.315 31.2-22.464 31.2-22.464s8.157-2.23 10.472-11.49c.772-3.088 0-6.175-1.543-6.175-3.087-.43-4.63.772-4.63.772s4.474-14.48 1.636-24.418c-2.836-9.94-2.461-27.205-26.312-29.2-23.851-1.995-38.764 18.583-39.618 24.547-.854 5.962-.714 14.905-.714 14.905z" fill="#F5CFA8"/><path d="M377.327 49.325s-1.357 10.308-1.15 12.065c-.044-1.757-.979-2.529-2.522-2.529-2.317 0-5.595 1.457-5.051 7.17.489 5.128 3.113 9.034 8.793 9.036 0 0 15.549 27.781 29.439 27.781 14.663 2.315 31.2-22.464 31.2-22.464s8.157-2.23 10.472-11.49c.772-3.088 0-6.175-1.543-6.175-3.087-.43-4.63.772-4.63.772s1.294-1.638-1.544-11.575c-2.755 20.064-13.89 40.9-32.411 49.389-18.521-12.347-26.238-20.92-29.325-56.334 0 10.804-1.728 4.354-1.728 4.354z" fill="#D4AC81"/><path d="M376.173 61.39l-.115.194c.588.22 1.168.443 1.736.683 10.584-5.535 5.888-25.515 5.6-37.303-3.217 3.859-5.071 7.468-5.355 9.456-.854 5.962-.714 14.905-.714 14.905s-1.578 10.788-1.152 12.066zm58.052-20.895c.78 5.264 2.548 18.531 5.13 23.098.817 1.44 2.321 1.38 2.891 1.216.725-2.682 4.283-16.772 1.725-25.736-1.531-5.373-2.134-12.882-6.122-18.965-4.875 7.772-4.986 11.234-3.624 20.387z" fill="#0D1C4B"/><path d="M431.531 13.33c-.183-.674 1.592-7.179 0-8.488 0-2.315-6.186 5.732-6.945 4.429-2.05-3.517 3.469-8.358 1.543-9.06-2.517-.916-8.176 7.718-10.032 7.718-1.543 0 1.543-2.315 1.543-5.402-1.929-.386-9.95 7.51-11.575 6.744-1.941-.916-2.021-5.232-3.087-7.516-1.206-5.378-3.049 5.429-11.575 11.576-2.327 1.677-4.686 2.292-6.946 3.858-1.632 1.131-5.071-1.81-5.402-1.543-1.667 1.35 3.173 6.269 1.708 7.717-1.427 1.41-10.196-2.315-8.653-.772 1.544 1.543 3.95 2.473 3.086 3.858-.768 1.23-1.825-2.678-2.314-1.543-1.336 3.096.784 8.036 2.314 9.648-2.8.458-8.777.676-9.259 1.927-.461 1.199 3.538.753 4.628 2.316 3.04 4.36 9.133 10.592 10.198 9.5 7.556-1.713 8.992-13.605 8.694-13.743 2.625 3.706 6.573 4.9 10.434 4.507-1.543-4.507 10.626-4.2 11.822-8.428 1.059 7.827 9.014 5.848 14.416 14.779 1.543-4.3 7.46-2.513 8.595-9.354-2.891 17.066 9.376 15.469 9.926 10.456.938-.995-.772-7.717-.772-10.033 1.542-2.425.772-3.857 3.859-5.848-.274-2.743-7.281-5.53-7.788-8.042-.667-3.303 6.396-6.132 1.614-7.768-2.562-.877-5.856-1.412-10.032-1.492z" fill="#29174F"/><path d="M389.053 51.72c-.168.086-.341-.082-.252-.248.573-1.086 2.1-3.614 4.288-4.53 3.795-1.585 4.232.352 5.427 1.484.139.132.068.403-.122.423l-4.651.48-4.69 2.391zm40.791 1.152c.166.09.343-.072.26-.241-.545-1.1-2.004-3.668-4.168-4.641-3.751-1.686-4.239.239-5.464 1.34-.142.127-.079.4.111.425l4.636.603 4.625 2.514z" fill="#0D1C4B"/><path d="M375.93 65.053s.496 5.886.92 7.164c.426 1.278-4.657-1.14-4.583-4.478.072-3.336 3.663-2.686 3.663-2.686zm63.741 10.99l2.198-7.814s3.08.662 2.197 3.663c-1.22 4.15-4.395 4.15-4.395 4.15z" fill="#373431"/><path d="M405.593 68.266c1.312-.091 2.441.475 2.523 1.267.083.79-.914 1.507-2.227 1.599-.639.045-.916-.477-1.368-.695-.475-.23-1.111-.166-1.153-.57-.083-.792.914-1.508 2.225-1.6z" fill="#0D1C4B"/><path d="M410.162 68.266c1.313-.091 2.442.475 2.524 1.267.082.79-.915 1.507-2.227 1.599-1.311.092-2.44-.475-2.522-1.266-.083-.791.915-1.507 2.225-1.6zm-13.371-13.185c-.132 1.278-1.272 2.28-2.543 2.235-1.272-.042-2.195-1.114-2.063-2.391.13-1.278 1.269-2.28 2.539-2.236 1.271.043 2.196 1.114 2.067 2.392zm29.325 0c-.132 1.278-1.272 2.28-2.543 2.235-1.272-.042-2.195-1.114-2.062-2.391.129-1.278 1.269-2.28 2.538-2.236 1.271.043 2.197 1.114 2.067 2.392z" fill="#0D1C4B"/><path d="M288.54 727.519l.673 4.037s3.924 49.785 5.046 44.852l9.758-48.889H288.54z" fill="#373431"/><path d="M357.497 260.861c-13.545 23.949-22.363 38.418-30.148 68.866-3.621 14.163-3.976 84.527-15.433 151.253-9.08 52.886-24.71 103.835-35.825 145.851-1.836 6.943 8.813 10.555 7.272 16.978-1.544 13.89-3.561 25.647-7.272 35.498 0 2.315-10.341 1.356-11.248 3.858-4.262 11.756-2.316 18.521-.001 29.325 8.488 2.315 30.169 6.715 47.074 6.945 20.719.284 29.324 0 33.183-13.119 1.579-5.369 1.442-3.858 4.63-14.662-3.188-3.087-7.546-1.145-8.489-4.63 1.543-9.26 2.01-16.977 5.301-33.955 1.795-9.26 10.608-19.429 12.25-29.325 12.636-76.163 26.332-156.928 32.49-182.861 1.475-6.209 2.593-6.379 2.737 0 .934 40.954.616 114.24-1.613 182.861 4.398 11.576 9.55 17.011 9.028 29.325-.521 12.314-1.543 19.292-4.63 33.955-.697 3.31-6.173 2.315-8.449 4.63-.039 6.945.2 13.164 0 16.025 0 23.081 13.079 19.23 20.796 19.473 20.102.632 43.987-3.087 48.682-7.717 4.566-10.032 6.109-19.293 7.652-34.727-.093-2.827-12.643 1.278-12.347-1.543.811-7.717 1.544-8.489 4.695-22.379 1.246-12.61 14.148.176 15.369-13.891 10.381-119.505 13.711-317.29-27.336-385.128-26.853-3.703-61.139-1.717-88.368-.906z" fill="url(#paint0_linear_12_583)"/><path d="M395.262 715.576c-5.401 1.544-4.115 5.145-3.086 7.717 5.402 6.946 22.122 4.732 33.183 3.859 12.09-1.286 35.344-4.785 31.64-8.489-4.631-4.63-55.801-4.783-61.737-3.087z" fill="#0D1C4B"/><path d="M324.294 353.893s.29-1.142.846-3.206c-.194.969-.395 1.983-.599 3.01l-.247.196z" fill="#4A80CA"/><path d="M450.163 246.343l-4.299 15.424-87.739-.507.253-14.664 91.785-.253z" fill="#882324"/><path d="M431.452 131.296s8.567-6.069 39.445 46.524c7.657 62.024-4.149 84.354-4.149 84.354s-12.505 4.031-13.905.844c-36.22-82.523-21.391-131.722-21.391-131.722z" fill="#882324"/><path d="M431.39 124.455c0-3.086 45.672 29.325 74.224 60.965l-13.89 74.854s-60.342-87.146-60.334-135.819z" fill="#ECBEEC"/><path d="M452.728 262.752zm-.115-.261l-.062-.144c.018.045.043.099.062.144zm-.118-.27a2.266 2.266 0 00-.043-.099c.012.029.031.068.043.099z" fill="#C87F46"/><path d="M456.17 264.244h-.004c-1.624 0-2.9-.317-3.311-1.2l-.013-.026-.09-.208-.025-.058a6.337 6.337 0 01-.082-.189c-.01-.023-.023-.047-.033-.072l-.062-.144-.055-.126-.044-.099a354.449 354.449 0 01-5.301-12.851c7.446.099 12.136.167 12.136.167s3.77-17.803 2.93-38.369c-.237-5.805-2.924-15.776-6.62-26.853l15.3-6.396c1.877 15.204 2.585 28.022 2.583 38.711-.004 32.917-6.732 45.643-6.732 45.643s-.129.041-.366.113c-1.418.434-6.649 1.957-10.211 1.957z" fill="#881D1C"/><path d="M431.873 123.891c3.625 4.107 28.882 76.295 29.634 97.174.832 23.085-15.313 41.525-15.313 41.525s-87.44-.943-89.517 0c-3.86-4.63-7.536-8.737-8.49-14.662-3.085-54.791-20.43-87.563-7.285-96.365 0 0 40.242-30.675 44.339-27.672 13.76 3.419 32.108 6.017 46.632 0z" fill="#ECBEEC"/><path d="M404.827 248.761c-.062-.002-.12-.002-.183-.002.063 0 .119 0 .183.002zm-.225-.004z" fill="#881D1C"/><path d="M348.771 248.712c-2.583-23.518-4.636-45.471-5-63.599.475 18.715 2.5 40.818 5 63.599z" fill="#C87F46"/><path d="M401.434 714.882l6.006 64.709s14.115 15.495 21.505 6.477c3.695-4.51 15.476-9.624 17.247-12.281-4.032-2.234-13.663-8.711-13.663-8.711l2.044-50.04s-10.317-.517-16.934-.54c-6.33-.021-16.205.386-16.205.386z" fill="#F5CFA8"/><path d="M392.709 248.642c-.039-.002-.079-.002-.118-.002.039 0 .076 0 .118.002zm-.212-.002a90.505 90.505 0 00-.521-.007l.521.007z" fill="#881D1C"/><path d="M467.06 134.554s-.712-64.245 2.494-64.734c9.388.12 3.804 29.156 8.454 28.076 5.499-.514 9.32-25.356 15.112-19.875 3.087-.318-7.189 24.728-7.189 24.728s9.456 9.374 9.8 11.617c.344 2.244-4.47 20.094-4.47 20.094l-24.201.094z" fill="#F5CFA8"/><path d="M433.073 714.913l-18.521 20.728s-8.91 19.596-10.032 14.662l-3.086-35.498s9.869-.809 16.205-.772c6.037.036 15.434.88 15.434.88z" fill="#373431"/><path d="M467.054 134.554s-9.443-13.606-5.998-16.037c3.445-2.43 24.686-12.433 19.097-5.99-5.588 6.445-9.005 10.044-9.005 10.044l5.714 8.578" fill="#F5CFA8"/><path d="M469.998 112.837s5.574-7.027 9.624-5.244c4.051 1.783-9.624 5.244-9.624 5.244zm10.893.346s-3.913 3.476-1.909 6.079c1.47 1.911 6.199-3.762 4.553.375-1.647 4.138-.74 6.048 2.151 4.801 2.892-1.243-9.676 5.024-9.676 5.024l-4.86-6.891 9.741-9.388z" fill="#373431"/><path d="M283.363 237.124c0-12.348 9.176-29.827 12.347-37.814 62.505-51.703 67.91-67.909 81.418-59.659 18.903 26.174-62.528 82.401-62.528 82.401l31.991 58.651 12.36 5.451-18.54 27.629-57.048-76.659z" fill="#F5CFA8"/><path d="M328.895 299.631c6.174-6.945 10.167-10.803 17.749-18.629l-7.582-51.595s74.331-73.376 55.428-99.55c-3.859-13.118-72.756 27.653-98.776 50.161-10.035 40.128-7.719 25.466-15.437 49.389-3.857 11.955-3.857 8.488 9.091 23.922 6.346 6.945 3.973 3.98 6.346 6.945 12.347 15.434 33.181 39.357 33.181 39.357zm137.36-166.207s-26.827 108.879-14.663 134.567c13.987 6.945 30.097 6.946 45.531-3.858 4.63-15.434-3.859-130.709-3.859-130.709h-27.009z" fill="#ECBEEC"/><path d="M458.538 166.899l-9.261 67.91v-45.531l3.704-6.173 5.557-16.206zm-141.774 41.855l22.021 21.288a.2.2 0 00.28-.003l10.619-10.618c.03-.03.05-.069.056-.111l6.935-44.694-8.457 43.054a.2.2 0 01-.196.161h-12.905a.215.215 0 01-.093-.022l-18.029-9.376c-.205-.106-.397.161-.231.321zm97.789 39.945l-57.877 13.891h89.517l3.858-3.859-2.315-4.63h-27.781l-5.402-5.402z" fill="#CF7FCA"/><path d="M398.346 308.12l-3.086-35.498h2.315l3.087 35.498-6.946 128.102h-.771l-.463.771-.309-.771 6.173-128.102zm-56.331 404.37c-6.944 14.662-65.595 3.858-77.171 0-.771-3.087-1.121-4.361 1.543-4.63 22.893-2.316 70.072-4.631 75.628 4.63z" fill="#0D1C4B"/><path d="M321.551 706.511l-9.07 64.351s-14.834 14.808-21.789 5.449c-3.477-4.679-15.001-10.347-16.644-13.086 4.133-2.04 14.06-8.052 14.06-8.052l.658-48.857s10.006-1.25 16.616-.959c6.324.279 16.169 1.154 16.169 1.154z" fill="#F5CFA8"/><path d="M288.556 706.199v18.41s11.365-5.682 31.252-5.114l1.746-13.061s-9.815-1.539-16.151-1.539c-8.15 0-16.847 1.304-16.847 1.304z" fill="#373431"/><path d="M496.352 195.452V185.42l1.544 10.803v24.695l-1.544-17.749-2.315-1.544 2.315-6.173z" fill="#CF7FCA"/><path d="M448.508 285.741l17.44 30.868c-3.549-19.293-16.668-54.019-19.755-54.019h-89.517l-10.032 18.521 10.804 4.63-17.749 27.009-3.859-4.63-.772 3.859 4.631 3.858 21.607-32.411-3.858-7.717v-10.804l91.06 20.836z" fill="#0D1C4B"/><path d="M426.9 373.714l-33.955 62.508 1.544 54.79 34.726-117.298v-94.919H426.9v94.919zm9.184 376.928h-39.28l5.199 25.397-5.199 28.283h98.777v-14.43l-34.659-13.853-8.087-21.357v-17.316l-10.397-4.041-6.354 17.317zm-151.099 0h39.28l-5.199 25.397 5.199 28.283h-98.778v-14.43l34.659-13.853 8.087-21.357v-17.316l10.398-4.041 6.354 17.317zm130.47-681.749c1.852-1.852.773-2.315-.771-2.315-1.234 0-.516.515-.001.772v.724a.199.199 0 01-.021.09l-.75 1.501c-.257.514-.309 1.08 1.543-.772zm-14.792-3.858c-1.493.747.303 3.015 1.834 4.486a.187.187 0 00.282-.021c.523-.74-.13-.932-.13-.932-.936-.731-1.872-2.194-.935-2.194 1.872 0 2.808-4.388 2.808-5.485 0-.878-.624-.366-.936 0 0 1.463-.913 3.14-2.923 4.146zm7.715 14.662c-3.087-3.087-7.46-1.029-10.033 0-.771 1.543 4.63.772 6.946 1.543l.009.003c2.307.77 2.307.77 3.077.77.773 0 1.663-.04 3.859-.773 2.316-.771 6.791-.925 6.174-1.543-2.315-2.315-8.489-2.315-10.032 0zm4.525 2.417c-2.987 2.855-7.115 1.274-8.987.016-.094-.063-.224-.039-.272.064-1.036 2.212 6.358 3.616 9.363 1.361.247-.247 1.164-.877.128-1.474a.196.196 0 00-.232.033z" fill="#0D1C4B"/><path d="M103.745 287.031c-1.058 15.703-3.282 47.638-3.705 49.755 16.091 16.091 47.285 2.823 60.871-5.822 2.294-7.763 6.881-26.466 6.881-39.169 0-12.704-42.698-8.469-64.047-4.764z" fill="#F5CFA8"/><path d="M138.15 222.455c24.878-4.235 38.64-7.94 53.461-18.526 9.527 2.117 29.853 6.352 34.935 6.352 5.081 0 42.345 89.63 60.341 134.445l47.893 60.496a4.99 4.99 0 01.083 6.098c-5.547 7.386-15.094 20.073-22.039 29.211-11.01-11.009-30.348 2.118-38.64 10.057-10.057-1.764-30.7-5.081-32.818-4.234-2.117.847-8.292-10.939-11.115-16.938l-10.024-51.176a.997.997 0 00-.12-.315l-15.67-26.639a.988.988 0 00-.327-.338l-68.535-43.405a20 20 0 00-21.34-.039l-29.403 18.471a1 1 0 01-1.508-.63L73.13 279.479a1.998 1.998 0 00-.314-.713L.905 176.108A4.997 4.997 0 010 173.24V68.557a10 10 0 017.253-9.615l58.836-16.81a1 1 0 011.022.297l16.52 18.585c3 3.353 9.846 11.645 13.233 17.997 4.506 0-1.88 27.466-2.585 33.128-.06.489-.25.955-.574 1.327C77.065 132.58 81 156.929 98.9 171.638c2.588 2.126 4.306 5.194 4.423 8.541.79 22.58 6.05 42.579 17.178 50.321.176-.529 2.829 4.235 17.65-8.045z" fill="#A04EFF"/><path d="M270.479 486.052l10.057-31.229 23.289 1.059 3.176 8.469c9.175 11.644 27.948 35.358 29.642 37.051 1.694 1.694-.706 2.823-2.117 3.176-.177.353-.318 1.165.529 1.588 1.059 3.705-1.059 5.218-3.176 3.705-2.47-1.764-8.363-6.351-12.174-10.586 3.176 6.352-2.823 7.94-4.235 5.293l-24.877-29.641c-1.765 1.235-7.093 5.505-14.292 12.703-7.198 7.199-6.881 1.941-5.822-1.588z" fill="#F5CFA8"/><path d="M83.631 61.014c3 3.353 9.846 11.645 13.233 17.997-37.13 37.13-71.442 14.856-89.422-7.371-4.128-5.103-1.26-12.392 5.05-14.195L66.09 42.132a1 1 0 011.022.297l16.52 18.585zm157.736 385.34c-2.118.847-8.293-10.939-11.116-16.938 25.305-13.893 62.238-28.716 99.463-22.669 3.55.576 5.052 4.703 2.891 7.578a7019.251 7019.251 0 01-19.781 26.207c-11.01-11.01-30.348 2.117-38.64 10.057-10.057-1.765-30.7-5.082-32.817-4.235zm-36.523-107.45l8.469-50.285-4.234 70.928-4.764-8.469-10.057-6.352 10.586-5.822z" fill="#771FE2"/><path d="M52.402 45.982l14.292-4.023c1.058 1.235 6.457 7.199 18.737 21.173-21.595 21.596-31.264-2.33-33.029-17.15zm260.421 394.549c-11.433-11.433-30.523 1.941-38.639 10.057.176.353 1.799 3.176 6.881 11.645 9.739 9.74 21.349 5.823 25.936 2.647.176-.706 1.588-6.564 5.822-24.349z" fill="#A04EFF"/><path d="M85.537 153.188c-5.36-13.937.741-31.303 7.305-38.713l-40.965 38.713c-.18.344 6.21.826 33.66 0zm12.915 123.786c-9.526-18.526 0-20.643 17.468-32.817-19.585 7.939-24.878 14.291-23.29 22.76l10.587 40.228 1.059-19.055-5.824-11.116zm77.28 29.112l-5.823 10.586 7.411-10.056 13.232-8.999 13.233-19.584 9.528 8.469-13.762-23.29-10.587 33.876-13.232 8.998z" fill="#771FE2"/><path d="M273.125 348.96l-35.993-82.043h8.998l36.523 82.043 45.521 53.461h-8.999l-46.05-53.461z" fill="#F9CDFD"/><path d="M84.161 768.176V742.24l32.818-1.059v26.995c0 4.658-21.879 1.941-32.818 0zm208.549-27.524l-19.585-31.23 26.466-7.41c2.646 6.881 4.977 19.847 7.41 23.819 2.433 3.972-3.95 10.761-14.291 14.821z" fill="#F5CFA8"/><path d="M160.382 330.435c-40.757 21.701-51.343 10.586-61.4 3.175-6.528 8.999-21.279 31.865-28.054 51.344-10.586 10.586-9.704 143.796-7.94 209.078 7.058 44.286 21.173 136.457 21.173 150.854 0 14.397 21.878 5.999 32.817 0l9.528-150.854 6.881-152.442 70.399 157.206c18.349 35.64 64.47 107.345 72.515 115.39 8.046 8.046 20.291-.176 25.407-5.293-4.94-19.055-16.938-63.835-25.407-90.513-14.82-14.82-28.406-63.341-33.346-85.748-30.171-142.914-53.99-165.675-82.573-202.197z" fill="#AF74EE"/><path d="M160.382 330.435c-40.757 21.701-51.344 10.586-61.4 3.175 1.411 7.587 14.185 22.761 53.989 22.761 23.29 19.902 58.225 76.044 71.987 101.099-7.411-41.287-40.228-105.863-64.576-127.035z" fill="#771FE2"/><path d="M120.154 388.659l1.588-41.286 2.117 1.058-1.587 40.228 11.115 52.931-2.117 45.521-11.116-98.452z" fill="#771FE2"/><path d="M81.729 755.321h39.28l-5.199 25.397 5.199 28.283H22.231v-14.43l34.66-13.853 8.086-21.356v-17.316l10.398-4.041 6.354 17.316zm207.208-23.697l23.562-25.689 8.469 24.952 23.819 13.934-71.855 65.323-8.567-11.612 20.08-43.371-6.589-10.34-10.281-13.934 5.968-9.424 15.394 10.161z" fill="#1C289C"/><path d="M161.97 189.638v28.053c12.703 12.704 25.054-2.823 29.641-12.174l-2.117-42.874-27.524 26.995z" fill="#F5CFA8"/><path d="M161.97 189.638v28.053c3.705-10.057 7.057-17.644 11.645-26.995l15.879-28.053-27.524 26.995z" fill="#D5AC81"/><path d="M161.97 189.638v10.586c5.293-7.411 6.881-9.528 10.586-14.292l16.938-23.289-27.524 26.995z" fill="#373431"/><path d="M229.192 93.832c-33.876-33.876-50.461-14.115-54.519 0l-2.647 12.174c6.176 0 18.526 11.433 18.526 57.166 0 57.166 55.049 31.229 60.342 14.821-11.645 0-24.878-17.468-19.585-12.175 5.293 5.293 14.821-1.588 19.585-12.703-10.586 10.586-14.644-5.823-15.35-15.35 0-10.057-1.27-32.923-6.352-43.933z" fill="#29174F"/><path d="M134.697 110.05c24.256-22.66 46.187-11.904 55.552-2.351.934.954 1.579 2.131 1.943 3.415 1.673 5.9 4.183 17.474 4.183 28.768 11.01 11.01 1.412 18.702-4.763 21.173-8.469 10.409-26.678 31.229-31.759 31.229-5.003 0-19.648-11.627-26.668-17.712a1.839 1.839 0 01-.499-.678c-3.587-8.402-8.313-31.154-.525-59.618a9.078 9.078 0 012.536-4.226z" fill="#F5CFA8"/><path d="M173.614 94.361c-.847 0-1.058 1.765-1.058 2.647v.53l12.703 6.88c1.765-.706 3.599-1.694 1.059-4.234-3.176-3.176-11.645-5.823-12.704-5.823z" fill="#AF74EE"/><path d="M189.494 119.768c2.006-8.025-1.374 1.535 5.621 11.116.473.648 1.162 1.957 1.587 2.614.15-.559.305-.252.359.059.09.525-.076.377-.359-.059-.167.628-.328 2.349-.328 6.384 11.01 11.01 1.412 18.702-4.763 21.173-8.469 10.409-26.678 31.229-31.759 31.229-5.081 0 14.82-19.055 17.467-29.641 6.353-16.409 3.282-12.81 12.175-42.875z" fill="#D5AC81"/><path d="M193.199 145.175l-2.117 8.469c0 .53 1.059 0 1.588 0 5.293-1.588 4.234-9.527.529-8.469z" fill="#373431"/><path d="M196.374 139.882l-4.523 2.715c-.49.293-.83.782-.936 1.343l-3.539 18.703c-.706-13.057-4.887-37.559-15.35-39.169-6.881-1.059-14.291.529-19.584 5.822-9.528-6.881-16.409-3.705-22.232 2.117-1.54 4.365-2.25 7.394-2.531 9.298-.049.832-.087 1.618-.115 2.347-.07-.347-.068-1.11.115-2.347.558-9.629 2.427-25.328 4.649-28.882 2.646-4.235 31.229-30.7 59.283-3.176 2.671 2.621 7.41 22.231 4.763 31.229z" fill="#29174F"/><path d="M164.913 135.331a.186.186 0 00.093-.341c-.889-.612-3.07-1.946-4.78-1.604-2.979.595-2.187 2.443-2.278 3.992-.01.182.204.322.355.22l2.803-1.9 3.807-.367zm-35.718 16.601c-.13.126-.339.031-.321-.148.105-1.075.491-3.602 1.855-4.689 2.376-1.894 3.278-.097 4.52.832.146.109.115.364-.061.413l-3.258.918-2.735 2.674zm24.772 8.212c.892-.529 1.888-.531 2.226-.002.338.527-.11 1.386-1.002 1.915-.891.53-1.887.53-2.225.002-.339-.528.111-1.386 1.001-1.915zm-13.846-5.969c.274.934-.835 2.36-2.476 3.185-1.64.825-3.192.737-3.466-.197-.278-.931.831-2.358 2.469-3.181 1.64-.825 3.195-.738 3.473.193zm26.583-11.382c.193.954-1.035 2.279-2.741 2.959-1.706.68-3.244.458-3.437-.496-.196-.952 1.033-2.277 2.735-2.955 1.706-.681 3.247-.46 3.443.492zm-8.709 16.363c.742-2.327-.351-2.248-1.629-1.588-1.022.528-.207.647.329.64l.309.597a.198.198 0 01.022.089l.021 1.561c.007.536.207 1.027.948-1.299zm-13.054 4.9c-.001 1.223 1.644 2.27 4.244 1.265a.2.2 0 00.113-.115c.96-2.541-2.149-1.505-2.149-1.505-.896 0-1.15-.174.021-4.409-.133-.642-.666-.141-.917.19.222 1.07-1.312 3.516-1.312 4.574zm10.651 5.002c-3.46-1.331-6.145 1.774-7.787 3.46-.066 1.464 3.86-.998 5.924-1.198h.007c2.056-.199 2.056-.199 2.654-.465.599-.266 1.277-.604 2.729-1.93 1.531-1.397 4.952-3.061 4.259-3.327-2.595-.998-7.386 1.131-7.786 3.46zm5.316.869c-1.443 3.871-5.848 4.249-8.08 3.933-.112-.016-.219.063-.218.176.033 2.443 7.299.482 9.02-2.857.115-.331.665-1.297-.528-1.383a.196.196 0 00-.194.131z" fill="#0D1C4B"/><path d="M95.276 54.133l-12.174 6.881c-3.176 0-15.35-12.703-15.35-15.35 0-2.646 33.347-21.172 34.935-19.584 1.588 1.588 20.643-2.647 22.231-2.647 1.588 0 4.234 3.706 3.176 6.352 3.175 3.176 1.587 3.705 1.587 6.352 10.163 0 7.411 5.646 4.764 8.469h-6.351l-2.118 2.117h16.409c4.058-2.117 12.809-5.822 15.35-3.705 3.388 3.388-11.998 8.822-20.114 11.115l-24.877 1.588 9.527 6.882c6.175 1.234 16.621 4.234 8.998 6.351-15.667 0-30.523-9.88-35.993-14.82z" fill="#F5CFA8"/><path d="M113.273 34.549c-6.881 1.588-5.999-1.235-6.351-2.117 0-.424-.353-.177-.53 0-12.174 6.88-5.293 15.35 3.705 13.232-1.693-1.693-.705-3.881 0-4.763l12.175-2.647c-1.765.353-6.458 1.059-11.116 1.059-1.059 0-3.705-3.42 2.117-4.764z" fill="#373431"/><defs><linearGradient id="paint0_linear_12_583" x1="371.131" y1="727.257" x2="371.131" y2="259.598" gradientUnits="userSpaceOnUse"><stop stop-color="#2331B5"/><stop offset=".655" stop-color="#152087"/><stop offset="1" stop-color="#2331B5"/></linearGradient></defs></svg>