<svg width="131" height="36" fill="none" xmlns="http://www.w3.org/2000/svg"><path d="M27.129 7.1A25.821 25.821 0 0020.515 5a17.555 17.555 0 00-.841 1.767 24.541 24.541 0 00-7.327 0c-.227-.55-.566-1.25-.841-1.767A25.456 25.456 0 004.89 7.1C.702 13.467-.43 19.683.136 25.817 2.917 27.9 5.602 29.167 8.239 30c.647-.9 1.23-1.867 1.73-2.883a16.752 16.752 0 01-2.732-1.35c.226-.167.452-.35.663-.534 5.271 2.484 10.982 2.484 16.189 0 .226.184.436.367.663.534a16.75 16.75 0 01-2.733 1.35A20.454 20.454 0 0023.749 30a26.501 26.501 0 008.104-4.183c.695-7.1-1.102-13.267-4.724-18.717zM10.697 22.033c-1.585 0-2.878-1.483-2.878-3.3 0-1.816 1.261-3.3 2.878-3.3 1.601 0 2.911 1.484 2.879 3.3 0 1.817-1.278 3.3-2.879 3.3zm10.627 0c-1.585 0-2.88-1.483-2.88-3.3 0-1.816 1.262-3.3 2.88-3.3 1.6 0 2.91 1.484 2.878 3.3 0 1.817-1.261 3.3-2.879 3.3zM44 10h7.108c1.705 0 3.16.273 4.347.818 1.187.545 2.074 1.295 2.659 2.266.585.971.886 2.079.886 3.34 0 1.226-.3 2.334-.92 3.339-.618.988-1.554 1.789-2.809 2.368-1.254.58-2.809.869-4.665.869H44V10zm6.523 9.695c1.153 0 2.04-.29 2.658-.886.619-.58.937-1.398.937-2.403 0-.937-.285-1.686-.836-2.249-.552-.562-1.388-.852-2.508-.852H48.55v6.39h1.973zm19.076 2.906c-.965-.24-1.83-.59-2.599-1.07v-2.89c.588.448 1.357.799 2.337 1.086.98.288 1.929.431 2.844.431.425 0 .752-.048.965-.16.212-.111.326-.239.326-.399a.583.583 0 00-.18-.43c-.114-.112-.343-.208-.686-.304l-2.141-.463c-1.226-.271-2.092-.67-2.615-1.15-.523-.479-.768-1.133-.768-1.931 0-.67.229-1.261.67-1.756.458-.495 1.095-.879 1.929-1.15.833-.271 1.797-.415 2.925-.415.997 0 1.913.096 2.746.32.834.207 1.52.478 2.06.797v2.73a8.042 8.042 0 00-1.93-.766 8.916 8.916 0 00-2.255-.287c-1.111 0-1.667.191-1.667.559 0 .175.082.303.262.399.18.096.49.175.948.271l1.781.32c1.16.191 2.027.542 2.599 1.037.572.495.85 1.214.85 2.188 0 1.053-.474 1.9-1.422 2.506-.948.623-2.288.926-4.02.926a14.044 14.044 0 01-2.96-.399zm12.385-.336c-.984-.496-1.746-1.152-2.238-1.983-.508-.831-.746-1.775-.746-2.83 0-1.04.254-1.983.778-2.798.524-.831 1.285-1.47 2.285-1.95 1-.464 2.207-.704 3.604-.704 1.73 0 3.158.368 4.301 1.103v3.182a5.046 5.046 0 00-1.412-.672 5.498 5.498 0 00-1.715-.255c-1.08 0-1.904.191-2.523.591-.604.4-.905.911-.905 1.55 0 .625.285 1.136.889 1.536.587.4 1.444.607 2.555.607a5.64 5.64 0 001.699-.255c.555-.176 1.047-.368 1.444-.624v3.086C88.73 22.616 87.254 23 85.587 23c-1.412 0-2.603-.256-3.603-.735zm13.284 0c-1.061-.496-1.87-1.152-2.426-1.999A5.07 5.07 0 0192 17.42c0-1.04.286-1.983.842-2.798s1.365-1.455 2.41-1.918c1.044-.464 2.307-.704 3.757-.704 1.449 0 2.712.224 3.757.704 1.044.463 1.853 1.103 2.409 1.918.555.816.825 1.743.825 2.798 0 1.04-.27 1.998-.825 2.846-.556.847-1.348 1.519-2.409 1.999-1.062.48-2.308.735-3.757.735-1.433 0-2.68-.256-3.741-.735zm5.577-3.086c.438-.416.674-.991.674-1.68 0-.702-.219-1.246-.674-1.662-.454-.415-1.06-.623-1.819-.623-.792 0-1.4.207-1.855.623-.438.416-.673.96-.673 1.663 0 .703.219 1.263.673 1.679.455.431 1.063.64 1.855.64.758-.017 1.381-.225 1.819-.64zM116 12.44v3.97c-.453-.304-1.036-.456-1.748-.456-.939 0-1.668.304-2.169.895-.503.592-.762 1.521-.762 2.771V23H107V12.253h4.241v3.43c.227-1.25.615-2.18 1.133-2.77a2.592 2.592 0 012.023-.913c.615 0 1.15.152 1.603.44zM131 10v12.646h-4.454v-2.304c-.385.87-.952 1.53-1.719 1.981-.769.451-1.721.677-2.855.677-1.001 0-1.885-.242-2.636-.709a4.65 4.65 0 01-1.734-1.949c-.401-.838-.601-1.772-.601-2.803-.017-1.08.2-2.046.65-2.9a4.885 4.885 0 011.869-1.997c.801-.483 1.718-.725 2.752-.725 2.12 0 3.54.886 4.274 2.674V10H131zm-5.122 9.07c.45-.42.684-.983.684-1.66 0-.66-.217-1.192-.668-1.595-.449-.402-1.05-.612-1.803-.612-.751 0-1.352.21-1.802.629-.451.418-.667.95-.667 1.627 0 .676.216 1.208.667 1.627.45.418 1.035.628 1.785.628.753 0 1.353-.21 1.804-.645zM62.5 13c1.38 0 2.5-.896 2.5-2 0-1.105-1.12-2-2.5-2-1.381 0-2.5.895-2.5 2 0 1.104 1.119 2 2.5 2zm2.5 1c-1.529.649-3.435.667-5 0v9h5v-9z" fill="#fff"/></svg>