<svg width="24" height="24" fill="none" xmlns="http://www.w3.org/2000/svg"><path d="M6.861 4.309A9.25 9.25 0 0112 2.75 9.26 9.26 0 0121.25 12 9.25 9.25 0 116.861 4.31z" stroke="#fff" stroke-width="1.5"/><path d="M17.94 9.713v.646a.37.37 0 01-.38.37 5.364 5.364 0 01-2.904-1.108v4.728a3.938 3.938 0 01-1.18 2.81 4.01 4.01 0 01-2.87 1.17 4.103 4.103 0 01-2.862-1.17 3.98 3.98 0 01-1.026-3.805c.16-.642.48-1.232.933-1.713a3.58 3.58 0 012.79-1.313h.82v1.703a.347.347 0 01-.39.348 1.918 1.918 0 00-1.23 3.631c.27.155.572.246.882.267.24.01.48-.02.708-.092a1.927 1.927 0 001.313-1.816V5.754a.361.361 0 01.36-.36h1.414a.36.36 0 01.36.34 3.303 3.303 0 001.281 2.245 3.25 3.25 0 001.641.636.37.37 0 01.338.35l.001.748z" fill="#fff"/></svg>