<svg width="461" height="352" viewBox="0 0 461 352" fill="none" xmlns="http://www.w3.org/2000/svg">
<ellipse cx="226.5" cy="4" rx="8.5" ry="4" fill="#049240"/>
<ellipse cx="227" cy="61" rx="65" ry="57" fill="#25CE74"/>
<path d="M62 149.623C62 125.875 81.2518 106.623 105 106.623H135V192.623H105C81.2518 192.623 62 173.371 62 149.623Z" fill="#698EFF"/>
<path d="M78 144.123C78 128.935 90.3122 116.623 105.5 116.623H106V171.623H105.5C90.3122 171.623 78 159.311 78 144.123Z" fill="#90ADFF"/>
<path d="M413 155.123L263 210.623C221 213.79 135.6 220.423 130 221.623C122 221.623 107.5 227.456 98 232.123L-19 300.123L-6.5 373.623L131.5 300.123C136 299.123 137 301.123 134.5 304.123L90 326.123L72 382.123L274.5 384.623L309 293.123L400.5 232.123C408 234.123 430.5 231.123 441.5 226.623C480.5 207.123 452 179.123 430.5 176.623C436 153.123 418.833 152.623 413 155.123Z" fill="#698EFF"/>
<path d="M382 149.623C382 125.875 362.748 106.623 339 106.623H309V192.623H339C362.748 192.623 382 173.371 382 149.623Z" fill="#698EFF"/>
<path d="M164 211.123C178 249.623 289.5 263.623 294.5 214.623L164 211.123Z" fill="#4550BF"/>
<path d="M369 143.123C369 127.935 356.688 115.623 341.5 115.623H341V170.623H341.5C356.688 170.623 369 158.311 369 143.123Z" fill="#90ADFF"/>
<rect x="93" y="54.623" width="267" height="173" rx="86.5" fill="#698EFF"/>
<circle cx="182.5" cy="118.123" r="11.5" fill="#22237E"/>
<circle cx="336.5" cy="118.123" r="11.5" fill="#22237E"/>
<path d="M297.5 91.623H228.948C223.031 91.623 216.661 92.758 211.85 96.2023C206.351 100.139 205 106.608 205 113.37V146.623C205 164.623 221.5 168.5 228.5 171.623C239.5 174 257 175.5 281.5 171.623C306.39 167.684 313.333 148.29 313.5 136.623C313.58 131 315.5 117 313.5 106.123C311.277 94.0336 302.833 91.7897 297.5 91.623Z" fill="#9DB7FF"/>
<path d="M219 186.623C208.2 175.823 185.833 171.79 176 171.123C175 170.623 172.8 171.523 172 179.123C172 203.123 194 204.456 205 202.123C210.833 199.456 221.8 192.623 219 186.623Z" fill="#DC4DA8"/>
<path d="M210 198.623C200 187.623 189 181.123 179 179.123C178 178.623 172 177.858 172 179.123C172 203.123 194 204.457 205 202.123C210.833 199.457 210.951 199.669 210 198.623Z" fill="#CE9BE4"/>
<rect x="232" y="136.623" width="27" height="15" rx="7.5" fill="#698EFF"/>
<rect x="272" y="136.623" width="27" height="15" rx="7.5" fill="#698EFF"/>
<path d="M214 54.5C253.365 91.9736 385.446 78.0195 290.141 55C237.93 55 225.741 54.5 214 54.5Z" fill="#049240"/>
<path d="M218 54C256 89 383.5 75.5 291.5 54H218Z" fill="#62EF8E"/>
<path d="M276 54C273 27.5 249 12.5 234.5 4.5C250.5 20 263 32.5 267.5 54H276Z" fill="#62EF8E"/>
<path d="M249 54C246 27.5 238.5 13 228.5 4C238 19 236 33 239 54H249Z" fill="#62EF8E"/>
<path d="M206 54.7C209 28.2 216.5 13 226.5 4C217 19 219 33.7 216 54.7H206Z" fill="#62EF8E"/>
<path d="M178 54.7C181.036 27.397 205.325 12.2424 220 4C203.807 19.9697 191.317 32.5485 186.762 54.7H178Z" fill="#62EF8E"/>
</svg>
